<svg xmlns="http://www.w3.org/2000/svg" xmlns:xlink="http://www.w3.org/1999/xlink" viewBox="0 0 60 75" version="1.1" x="0px" y="0px"><title>032 - Machine Learning</title><desc>Created with Sketch.</desc><g stroke="none" stroke-width="1" fill="none" fill-rule="evenodd" stroke-linecap="round" stroke-linejoin="round"><g transform="translate(1.000000, 1.000000)" stroke="#000000" stroke-width="2"><circle cx="28" cy="29" r="3"/><circle cx="15" cy="31" r="3"/><circle cx="17" cy="18" r="3"/><circle cx="41" cy="21" r="3"/><circle cx="42" cy="33" r="3"/><circle cx="30" cy="12" r="3"/><path d="M40.14001,52.13 L38.85999,47.87"/><path d="M48.21997,52.10999 L43.78003,53.89001"/><path d="M50.29999,43.97998 L50.70001,48.01996"/><path d="M53.98999,29.82001 L51.01001,38.17999"/><path d="M52.59003,14.94 L54.40997,24.06"/><path d="M38.75,4.20001 L49.25,10.79999"/><path d="M22,3 L33,3"/><path d="M9.5,11.32996 L16.5,4.66998"/><path d="M4.21997,19.26001 L5.78003,15.73999"/><path d="M3,32 L3,25"/><path d="M9.76001,41.01001 L5.23999,36.98999"/><path d="M22.01001,42.22998 L14.98999,42.76996"/><path d="M35.08002,44.32996 L27.91998,42.66998"/><circle cx="3" cy="22" r="3"/><circle cx="7" cy="13" r="3"/><circle cx="19" cy="3" r="3"/><circle cx="36" cy="3" r="3"/><circle cx="52" cy="12" r="3"/><circle cx="55" cy="27" r="3"/><circle cx="50" cy="41" r="3"/><circle cx="51" cy="51" r="3"/><circle cx="41" cy="55" r="3"/><circle cx="38" cy="45" r="3"/><circle cx="25" cy="42" r="3"/><circle cx="12" cy="43" r="3"/><circle cx="3" cy="35" r="3"/><path d="M27.33,31.92 L25.67,39.08"/><path d="M36.41,42.46 L29.59,31.54"/><path d="M41.05,35.84 L38.95,42.16"/><path d="M12.16,31.95 L5.84,34.05"/><polyline points="25.75 30.97 25.74 30.97 14.25 41.03"/><path d="M25.04,29.46 L17.96,30.54"/><path d="M14.27,33.91 L12.73,40.09"/><path d="M14.12,18.82 L5.88,21.18"/><path d="M16.54,20.96 L15.46,28.04"/><path d="M29.65,14.97 L28.35,26.03"/><path d="M18.6,5.97 L17.4,15.03"/><path d="M25.88,26.88 L19.12,20.12"/><path d="M27.68,10.1 L21.32,4.9"/><path d="M14.32,16.66 L9.68,14.34"/><path d="M40.2,18.11 L36.8,5.89"/><path d="M34.33,5.5 L31.67,9.5"/><path d="M49.68,13.9 L43.32,19.1"/><path d="M47.88,38.88 L44.12,35.12"/><path d="M52.24,25.82 L43.76,22.18"/><path d="M41.75,30.02 L41.25,23.98"/><path d="M47.16,41.95 L40.84,44.05"/><path d="M39.12,32.18 L30.88,29.82"/><path d="M38.45,22.57 L30.55,27.43"/><path d="M27.28,13.26 L19.72,16.74"/><path d="M38.68,19.1 L32.32,13.9"/></g></g><text x="0" y="75" fill="#000000" font-size="5px" font-weight="bold" font-family="'Helvetica Neue', Helvetica, Arial-Unicode, Arial, Sans-serif">Created by Ben Davis</text><text x="0" y="80" fill="#000000" font-size="5px" font-weight="bold" font-family="'Helvetica Neue', Helvetica, Arial-Unicode, Arial, Sans-serif">from the Noun Project</text></svg>